<?xml version="1.0" standalone="no"?>
<!DOCTYPE svg PUBLIC "-//W3C//DTD SVG 20010904//EN"
 "http://www.w3.org/TR/2001/REC-SVG-20010904/DTD/svg10.dtd">
<svg version="1.0" xmlns="http://www.w3.org/2000/svg"
 width="606.000000pt" height="528.000000pt" viewBox="0 0 606.000000 528.000000"
 preserveAspectRatio="xMidYMid meet">

<g transform="translate(0.000000,528.000000) scale(0.100000,-0.100000)"
fill="#000000" stroke="none">
<path d="M1582 5056 l-83 -144 277 -479 c153 -263 288 -497 302 -520 53 -94
198 -197 323 -229 211 -54 430 83 605 379 l34 57 -313 540 -312 540 -375 0
-375 0 -83 -144z"/>
<path d="M3736 5178 c-7 -13 -168 -293 -356 -623 -188 -330 -365 -633 -392
-672 -61 -88 -180 -203 -245 -237 l-48 -25 285 -3 c157 -1 384 -2 505 -2 l220
-1 70 34 c79 39 213 161 280 256 23 33 158 260 300 505 141 245 264 457 273
472 15 26 14 30 -68 172 l-83 146 -363 0 -364 0 -14 -22z"/>
<path d="M1290 4553 c-78 -136 -246 -427 -372 -646 -127 -219 -229 -399 -227
-401 2 -2 76 17 164 41 366 99 486 130 489 124 2 -3 39 -138 81 -299 43 -160
80 -290 82 -288 2 2 107 182 233 401 204 352 228 399 218 418 -29 56 -510 883
-517 890 -4 4 -72 -104 -151 -240z"/>
<path d="M4438 4340 l-267 -460 215 -369 c118 -204 214 -374 214 -378 0 -4
-38 -30 -85 -56 -47 -27 -85 -52 -85 -56 0 -4 30 -15 68 -24 37 -9 227 -60
422 -112 195 -53 364 -97 374 -98 17 -2 32 47 137 438 64 242 116 441 115 442
-1 1 -33 -15 -71 -37 -37 -22 -69 -39 -70 -38 -1 2 -157 271 -345 598 -188
327 -345 598 -349 602 -4 4 -126 -199 -273 -452z"/>
<path d="M820 3429 c-239 -65 -437 -119 -440 -119 -3 0 27 -19 65 -41 39 -23
72 -42 73 -44 2 -2 -40 -81 -93 -176 -111 -198 -157 -298 -187 -413 -26 -101
-29 -244 -6 -298 9 -20 124 -219 255 -442 l238 -405 6 82 c13 174 38 230 341
754 238 413 251 432 271 422 12 -7 53 -30 90 -51 38 -22 70 -38 71 -36 2 1
-47 190 -109 418 -61 228 -115 427 -119 443 -3 15 -10 27 -14 26 -4 -1 -203
-54 -442 -120z"/>
<path d="M5557 3294 c-3 -11 -43 -158 -88 -329 -45 -170 -83 -311 -84 -312 0
-1 -133 33 -295 77 -162 43 -295 78 -296 77 -1 -1 95 -168 213 -372 119 -203
241 -416 273 -472 74 -133 120 -271 129 -386 l6 -87 249 422 c228 389 249 428
259 489 14 89 -10 228 -63 362 -33 85 -262 512 -290 541 -4 4 -10 0 -13 -10z"/>
<path d="M3067 1892 c-174 -174 -317 -322 -317 -327 0 -6 146 -156 325 -335
l325 -325 0 93 0 92 736 0 c823 0 794 -2 935 71 275 143 321 413 131 774 l-48
90 -877 3 -877 2 0 90 c0 50 -3 90 -7 90 -5 0 -151 -143 -326 -318z"/>
<path d="M950 1958 c-121 -220 -156 -420 -99 -573 30 -81 119 -172 217 -223
144 -75 94 -72 1096 -72 493 0 896 3 896 8 0 4 -104 111 -230 237 l-230 230
232 232 233 233 -1037 0 -1037 0 -41 -72z"/>
<path d="M4814 781 c-40 -24 -58 -69 -51 -129 4 -37 12 -52 38 -74 18 -15 44
-30 58 -33 52 -11 91 -43 91 -73 0 -70 -85 -81 -105 -14 -8 30 -12 32 -52 32
-47 0 -49 -3 -32 -63 14 -51 57 -77 127 -77 104 0 152 39 152 126 0 68 -20 92
-114 137 -68 33 -76 40 -76 64 0 16 4 33 8 39 21 31 73 20 82 -17 5 -20 13
-25 48 -27 36 -3 42 0 42 17 0 37 -19 71 -52 91 -43 26 -122 27 -164 1z"/>
<path d="M1090 575 l0 -215 40 0 40 0 0 162 c0 89 2 159 5 157 2 -3 18 -68 35
-144 41 -188 36 -175 75 -175 39 0 34 -13 74 174 17 76 33 141 36 144 3 3 5
-67 5 -156 l0 -162 40 0 40 0 0 215 0 216 -67 -3 -67 -3 -8 -40 c-30 -149 -51
-245 -54 -242 -3 2 -17 66 -32 143 l-28 139 -67 3 -67 3 0 -216z"/>
<path d="M1540 575 l0 -215 125 0 125 0 0 35 0 35 -80 0 -80 0 0 60 0 60 70 0
70 0 0 35 0 35 -70 0 -70 0 0 50 0 49 78 3 77 3 3 33 3 32 -125 0 -126 0 0
-215z"/>
<path d="M1830 575 l0 -215 45 0 45 0 0 95 0 95 50 0 50 0 0 -95 0 -95 45 0
45 0 0 215 0 215 -45 0 -45 0 0 -86 0 -85 -47 3 -48 3 -3 83 -3 82 -44 0 -45
0 0 -215z"/>
<path d="M2170 575 l0 -215 45 0 45 0 0 90 0 90 33 0 c54 0 62 -11 67 -97 l5
-78 46 -3 46 -3 -4 58 c-7 99 -13 122 -37 138 l-24 16 29 29 c24 24 29 37 29
80 0 44 -4 56 -29 81 -29 29 -31 29 -140 29 l-111 0 0 -215z m168 139 c15 -10
22 -25 22 -49 0 -39 -29 -65 -72 -65 -28 0 -28 1 -28 65 0 64 0 65 28 65 15 0
38 -7 50 -16z"/>
<path d="M2597 783 c-3 -5 -24 -80 -47 -168 -23 -88 -48 -181 -55 -207 l-14
-48 48 0 48 0 9 43 9 42 57 3 57 3 8 -43 c9 -43 9 -43 57 -46 42 -3 47 -1 42
15 -12 42 -106 403 -106 408 0 8 -108 6 -113 -2z m88 -225 l7 -38 -41 0 c-46
0 -44 -10 -21 90 23 102 22 100 36 40 7 -30 16 -72 19 -92z"/>
<path d="M2850 575 l0 -215 125 0 125 0 0 35 0 35 -80 0 -80 0 0 60 0 60 76 0
75 0 -3 33 -3 32 -72 3 -73 3 0 49 0 49 78 3 77 3 3 33 3 32 -125 0 -126 0 0
-215z"/>
<path d="M3150 575 l0 -215 45 0 45 0 0 215 0 215 -45 0 -45 0 0 -215z"/>
<path d="M3300 575 l0 -215 40 0 40 0 0 142 c0 78 3 138 7 134 4 -4 28 -66 54
-139 l46 -132 51 -3 52 -3 0 215 0 216 -40 0 -39 0 -3 -141 -3 -140 -50 140
-50 141 -52 0 -53 0 0 -215z"/>
<path d="M3800 575 l0 -215 45 0 45 0 0 85 0 85 40 0 c98 0 146 52 138 148 -4
47 -10 60 -37 84 -30 27 -36 28 -131 28 l-100 0 0 -215z m158 139 c16 -11 22
-25 22 -53 0 -43 -13 -58 -58 -67 l-32 -6 0 71 c0 67 1 71 23 71 12 0 33 -7
45 -16z"/>
<path d="M4167 763 c-4 -16 -29 -113 -56 -216 l-50 -188 47 3 c46 3 47 3 56
46 l9 42 57 0 57 0 9 -42 c9 -43 9 -43 58 -46 37 -2 47 0 44 10 -3 7 -29 104
-58 216 l-53 202 -57 0 c-55 0 -58 -1 -63 -27z m82 -135 c7 -35 15 -73 18 -85
5 -21 2 -23 -37 -23 -39 0 -42 2 -37 23 3 12 11 50 18 85 7 34 16 62 20 62 3
0 12 -28 18 -62z"/>
<path d="M4430 575 l0 -215 45 0 45 0 0 90 0 90 34 0 c47 0 60 -21 66 -104 l5
-71 45 -3 46 -3 -8 88 c-6 77 -10 90 -32 107 l-24 19 25 21 c30 26 41 92 23
136 -20 48 -55 60 -170 60 l-100 0 0 -215z m176 134 c8 -6 14 -26 14 -45 0
-38 -29 -64 -72 -64 -28 0 -28 0 -28 66 l0 67 36 -6 c20 -3 42 -11 50 -18z"/>
<path d="M1830 141 c0 -34 4 -61 10 -61 6 0 10 11 10 24 0 21 6 25 33 28 28 3
32 6 32 33 0 28 -3 30 -42 33 l-43 3 0 -60z m65 24 c0 -13 -8 -21 -22 -23 -19
-3 -23 1 -23 23 0 22 4 26 23 23 14 -2 22 -10 22 -23z"/>
<path d="M2080 145 c-22 -55 -22 -87 0 -46 14 27 44 27 63 -1 8 -13 17 -21 20
-18 8 7 -37 113 -50 117 -5 2 -21 -21 -33 -52z m44 9 c9 -23 8 -24 -13 -24
-14 0 -18 5 -14 20 6 24 19 26 27 4z"/>
<path d="M2320 141 c0 -34 4 -61 10 -61 6 0 10 11 10 24 0 21 6 25 33 28 28 3
32 6 32 33 0 28 -3 30 -42 33 l-43 3 0 -60z m70 34 c16 -19 4 -35 -26 -35 -19
0 -24 5 -24 25 0 29 29 35 50 10z"/>
<path d="M2570 140 l0 -60 48 2 c43 1 44 2 10 5 -30 3 -38 9 -38 24 0 14 7 19
30 19 17 0 30 5 30 10 0 6 -13 10 -30 10 -23 0 -30 5 -30 19 0 15 8 21 38 24
34 3 33 4 -10 5 l-48 2 0 -60z"/>
<path d="M2820 140 c0 -33 4 -60 10 -60 6 0 10 12 10 26 0 22 4 25 28 22 19
-2 28 -9 30 -25 2 -13 7 -23 12 -23 5 0 5 13 0 28 -4 17 -4 36 2 46 15 26 -8
46 -53 46 l-39 0 0 -60z m78 28 c3 -14 -3 -18 -27 -18 -25 0 -31 4 -31 21 0
16 5 20 27 17 17 -2 29 -10 31 -20z"/>
<path d="M3272 138 c1 -61 1 -62 8 -18 l6 45 12 -30 c7 -16 15 -36 17 -42 8
-23 22 -14 38 25 l15 37 1 -37 c2 -63 21 -42 21 22 0 72 -20 82 -39 20 -16
-55 -27 -57 -43 -8 -22 66 -38 60 -36 -14z"/>
<path d="M3563 140 c0 -36 2 -50 4 -32 2 17 2 47 0 65 -2 17 -4 3 -4 -33z"/>
<path d="M3740 140 l0 -60 48 2 c43 1 44 2 10 5 l-38 4 0 55 c0 30 -4 54 -10
54 -6 0 -10 -27 -10 -60z"/>
<path d="M3982 143 l-2 -63 43 1 42 2 -35 6 c-34 6 -35 7 -41 61 l-6 55 -1
-62z"/>
<path d="M4214 186 c-10 -25 0 -39 37 -51 19 -7 34 -18 34 -26 0 -21 -34 -23
-56 -3 -17 15 -19 15 -19 1 0 -22 34 -39 64 -31 48 12 44 56 -6 70 -36 11 -48
31 -23 40 9 4 25 -2 37 -12 20 -19 20 -19 17 1 -5 26 -76 35 -85 11z"/>
<path d="M1707 154 c-14 -15 -6 -34 14 -34 14 0 19 5 17 17 -3 18 -20 27 -31
17z"/>
<path d="M4400 140 c0 -15 5 -20 18 -18 9 2 17 10 17 18 0 8 -8 16 -17 18 -13
2 -18 -3 -18 -18z"/>
</g>
</svg>
